<mxfile host="Electron" modified="2024-04-10T08:19:37.263Z" agent="Mozilla/5.0 (Macintosh; Intel Mac OS X 10_15_7) AppleWebKit/537.36 (KHTML, like Gecko) draw.io/24.0.4 Chrome/120.0.6099.109 Electron/28.1.0 Safari/537.36" etag="O-MKc2BIAYwL0J4yATuC" version="24.0.4" type="device">
  <diagram name="Page-1" id="U6x4JqQ6GjsXNDJfdD6n">
    <mxGraphModel dx="1034" dy="539" grid="1" gridSize="10" guides="1" tooltips="1" connect="1" arrows="1" fold="1" page="1" pageScale="1" pageWidth="827" pageHeight="1169" math="0" shadow="0">
      <root>
        <mxCell id="0" />
        <mxCell id="1" parent="0" />
        <mxCell id="71ffQLiC_f40-Ffij4la-1" value="" style="rounded=0;whiteSpace=wrap;html=1;" vertex="1" parent="1">
          <mxGeometry x="110" y="120" width="400" height="200" as="geometry" />
        </mxCell>
        <mxCell id="71ffQLiC_f40-Ffij4la-3" value="" style="whiteSpace=wrap;html=1;aspect=fixed;" vertex="1" parent="1">
          <mxGeometry x="250" y="150" width="95" height="95" as="geometry" />
        </mxCell>
        <mxCell id="71ffQLiC_f40-Ffij4la-5" value="" style="whiteSpace=wrap;html=1;aspect=fixed;" vertex="1" parent="1">
          <mxGeometry x="130" y="147.5" width="95" height="95" as="geometry" />
        </mxCell>
        <mxCell id="71ffQLiC_f40-Ffij4la-6" value="" style="whiteSpace=wrap;html=1;aspect=fixed;" vertex="1" parent="1">
          <mxGeometry x="366" y="147.5" width="95" height="95" as="geometry" />
        </mxCell>
        <mxCell id="71ffQLiC_f40-Ffij4la-7" value="" style="whiteSpace=wrap;html=1;aspect=fixed;" vertex="1" parent="1">
          <mxGeometry x="137.5" y="157.5" width="32.5" height="32.5" as="geometry" />
        </mxCell>
        <mxCell id="71ffQLiC_f40-Ffij4la-8" value="" style="whiteSpace=wrap;html=1;aspect=fixed;" vertex="1" parent="1">
          <mxGeometry x="270" y="157.5" width="32.5" height="32.5" as="geometry" />
        </mxCell>
        <mxCell id="71ffQLiC_f40-Ffij4la-9" value="" style="whiteSpace=wrap;html=1;aspect=fixed;" vertex="1" parent="1">
          <mxGeometry x="397" y="167.5" width="32.5" height="32.5" as="geometry" />
        </mxCell>
        <mxCell id="71ffQLiC_f40-Ffij4la-11" value="VM" style="text;html=1;align=center;verticalAlign=middle;whiteSpace=wrap;rounded=0;" vertex="1" parent="1">
          <mxGeometry x="123.75" y="157.5" width="60" height="30" as="geometry" />
        </mxCell>
        <mxCell id="71ffQLiC_f40-Ffij4la-12" value="VM" style="text;html=1;align=center;verticalAlign=middle;whiteSpace=wrap;rounded=0;" vertex="1" parent="1">
          <mxGeometry x="256.25" y="160" width="60" height="30" as="geometry" />
        </mxCell>
        <mxCell id="71ffQLiC_f40-Ffij4la-13" value="VM" style="text;html=1;align=center;verticalAlign=middle;whiteSpace=wrap;rounded=0;" vertex="1" parent="1">
          <mxGeometry x="384" y="167.5" width="60" height="30" as="geometry" />
        </mxCell>
        <mxCell id="71ffQLiC_f40-Ffij4la-14" value="SUBNET 1" style="text;html=1;align=center;verticalAlign=middle;whiteSpace=wrap;rounded=0;" vertex="1" parent="1">
          <mxGeometry x="138.75" y="242.5" width="77.5" height="30" as="geometry" />
        </mxCell>
        <mxCell id="71ffQLiC_f40-Ffij4la-16" value="SUBNET 2" style="text;html=1;align=center;verticalAlign=middle;whiteSpace=wrap;rounded=0;" vertex="1" parent="1">
          <mxGeometry x="258.75" y="242.5" width="77.5" height="30" as="geometry" />
        </mxCell>
        <mxCell id="71ffQLiC_f40-Ffij4la-17" value="SUBNET 3" style="text;html=1;align=center;verticalAlign=middle;whiteSpace=wrap;rounded=0;" vertex="1" parent="1">
          <mxGeometry x="383.5" y="242.5" width="77.5" height="30" as="geometry" />
        </mxCell>
        <mxCell id="71ffQLiC_f40-Ffij4la-18" value="AZ 1a" style="text;html=1;align=center;verticalAlign=middle;whiteSpace=wrap;rounded=0;" vertex="1" parent="1">
          <mxGeometry x="138.75" y="212.5" width="60" height="30" as="geometry" />
        </mxCell>
        <mxCell id="71ffQLiC_f40-Ffij4la-19" value="AZ 1b" style="text;html=1;align=center;verticalAlign=middle;whiteSpace=wrap;rounded=0;" vertex="1" parent="1">
          <mxGeometry x="267.5" y="215" width="60" height="30" as="geometry" />
        </mxCell>
        <mxCell id="71ffQLiC_f40-Ffij4la-20" value="AZ 1c" style="text;html=1;align=center;verticalAlign=middle;whiteSpace=wrap;rounded=0;" vertex="1" parent="1">
          <mxGeometry x="384" y="215" width="60" height="30" as="geometry" />
        </mxCell>
        <mxCell id="71ffQLiC_f40-Ffij4la-21" value="" style="rounded=0;whiteSpace=wrap;html=1;" vertex="1" parent="1">
          <mxGeometry x="216.25" y="40" width="223.75" height="60" as="geometry" />
        </mxCell>
        <mxCell id="71ffQLiC_f40-Ffij4la-22" value="LOAD BALANCER" style="text;html=1;align=center;verticalAlign=middle;whiteSpace=wrap;rounded=0;" vertex="1" parent="1">
          <mxGeometry x="267.5" y="55" width="132.5" height="30" as="geometry" />
        </mxCell>
        <mxCell id="71ffQLiC_f40-Ffij4la-23" value="" style="endArrow=classic;html=1;rounded=0;" edge="1" parent="1" target="71ffQLiC_f40-Ffij4la-11">
          <mxGeometry width="50" height="50" relative="1" as="geometry">
            <mxPoint x="243.75" y="100" as="sourcePoint" />
            <mxPoint x="183.75" y="180" as="targetPoint" />
          </mxGeometry>
        </mxCell>
        <mxCell id="71ffQLiC_f40-Ffij4la-24" value="" style="endArrow=classic;html=1;rounded=0;" edge="1" parent="1" target="71ffQLiC_f40-Ffij4la-12">
          <mxGeometry width="50" height="50" relative="1" as="geometry">
            <mxPoint x="311.75" y="100" as="sourcePoint" />
            <mxPoint x="240" y="158" as="targetPoint" />
          </mxGeometry>
        </mxCell>
        <mxCell id="71ffQLiC_f40-Ffij4la-25" value="" style="endArrow=classic;html=1;rounded=0;entryX=0.25;entryY=0;entryDx=0;entryDy=0;" edge="1" parent="1" target="71ffQLiC_f40-Ffij4la-13">
          <mxGeometry width="50" height="50" relative="1" as="geometry">
            <mxPoint x="366" y="100" as="sourcePoint" />
            <mxPoint x="345.25" y="160" as="targetPoint" />
          </mxGeometry>
        </mxCell>
        <mxCell id="71ffQLiC_f40-Ffij4la-26" value="VM" style="whiteSpace=wrap;html=1;aspect=fixed;" vertex="1" parent="1">
          <mxGeometry x="110" y="420" width="80" height="80" as="geometry" />
        </mxCell>
        <mxCell id="71ffQLiC_f40-Ffij4la-28" value="AUTO SCALING GROUP" style="whiteSpace=wrap;html=1;aspect=fixed;" vertex="1" parent="1">
          <mxGeometry x="520" y="340" width="80" height="80" as="geometry" />
        </mxCell>
        <mxCell id="71ffQLiC_f40-Ffij4la-29" value="AMI" style="whiteSpace=wrap;html=1;aspect=fixed;" vertex="1" parent="1">
          <mxGeometry x="216.25" y="420" width="80" height="80" as="geometry" />
        </mxCell>
        <mxCell id="71ffQLiC_f40-Ffij4la-30" value="LAUNCH TEMPLATE" style="rounded=1;whiteSpace=wrap;html=1;" vertex="1" parent="1">
          <mxGeometry x="345" y="430" width="120" height="60" as="geometry" />
        </mxCell>
        <mxCell id="71ffQLiC_f40-Ffij4la-32" value="SCALING POLICY&lt;div&gt;&lt;br&gt;&lt;div&gt;CPU 50%&lt;/div&gt;&lt;div&gt;&lt;br&gt;&lt;/div&gt;&lt;div&gt;MIN 2 VMS&lt;/div&gt;&lt;div&gt;DESIRED 2 VMS&lt;/div&gt;&lt;div&gt;MAX 3&lt;/div&gt;&lt;/div&gt;" style="rounded=1;whiteSpace=wrap;html=1;direction=south;" vertex="1" parent="1">
          <mxGeometry x="660" y="147.5" width="120" height="192.5" as="geometry" />
        </mxCell>
        <mxCell id="71ffQLiC_f40-Ffij4la-33" value="" style="endArrow=classic;html=1;rounded=0;entryX=0;entryY=0.5;entryDx=0;entryDy=0;" edge="1" parent="1" target="71ffQLiC_f40-Ffij4la-29">
          <mxGeometry width="50" height="50" relative="1" as="geometry">
            <mxPoint x="190" y="465" as="sourcePoint" />
            <mxPoint x="216.25" y="455" as="targetPoint" />
          </mxGeometry>
        </mxCell>
        <mxCell id="71ffQLiC_f40-Ffij4la-35" value="" style="endArrow=classic;html=1;rounded=0;entryX=0;entryY=0.5;entryDx=0;entryDy=0;" edge="1" parent="1" target="71ffQLiC_f40-Ffij4la-30">
          <mxGeometry width="50" height="50" relative="1" as="geometry">
            <mxPoint x="296.25" y="462.5" as="sourcePoint" />
            <mxPoint x="322.25" y="457.5" as="targetPoint" />
          </mxGeometry>
        </mxCell>
        <mxCell id="71ffQLiC_f40-Ffij4la-36" value="" style="endArrow=classic;html=1;rounded=0;entryX=0;entryY=0.75;entryDx=0;entryDy=0;" edge="1" parent="1" target="71ffQLiC_f40-Ffij4la-28">
          <mxGeometry width="50" height="50" relative="1" as="geometry">
            <mxPoint x="465" y="460" as="sourcePoint" />
            <mxPoint x="515" y="410" as="targetPoint" />
          </mxGeometry>
        </mxCell>
        <mxCell id="71ffQLiC_f40-Ffij4la-38" value="USED BY" style="text;html=1;align=center;verticalAlign=middle;resizable=0;points=[];autosize=1;strokeColor=none;fillColor=none;" vertex="1" parent="1">
          <mxGeometry x="480" y="438" width="80" height="30" as="geometry" />
        </mxCell>
        <mxCell id="71ffQLiC_f40-Ffij4la-39" value="" style="endArrow=classic;html=1;rounded=0;entryX=1;entryY=0.715;entryDx=0;entryDy=0;entryPerimeter=0;" edge="1" parent="1" target="71ffQLiC_f40-Ffij4la-1">
          <mxGeometry width="50" height="50" relative="1" as="geometry">
            <mxPoint x="570" y="340" as="sourcePoint" />
            <mxPoint x="620" y="290" as="targetPoint" />
          </mxGeometry>
        </mxCell>
        <mxCell id="71ffQLiC_f40-Ffij4la-40" value="Creates the VM&#39;s" style="text;html=1;align=center;verticalAlign=middle;whiteSpace=wrap;rounded=0;" vertex="1" parent="1">
          <mxGeometry x="530" y="270" width="60" height="30" as="geometry" />
        </mxCell>
        <mxCell id="71ffQLiC_f40-Ffij4la-41" value="" style="endArrow=classic;html=1;rounded=0;entryX=0.621;entryY=1.008;entryDx=0;entryDy=0;entryPerimeter=0;" edge="1" parent="1" target="71ffQLiC_f40-Ffij4la-32">
          <mxGeometry width="50" height="50" relative="1" as="geometry">
            <mxPoint x="590" y="340" as="sourcePoint" />
            <mxPoint x="640" y="290" as="targetPoint" />
          </mxGeometry>
        </mxCell>
        <mxCell id="71ffQLiC_f40-Ffij4la-42" value="" style="endArrow=classic;html=1;rounded=0;entryX=0.825;entryY=-0.025;entryDx=0;entryDy=0;entryPerimeter=0;" edge="1" parent="1">
          <mxGeometry width="50" height="50" relative="1" as="geometry">
            <mxPoint x="490" y="30" as="sourcePoint" />
            <mxPoint x="440" y="55" as="targetPoint" />
          </mxGeometry>
        </mxCell>
        <mxCell id="71ffQLiC_f40-Ffij4la-43" value="INTERNET (USERS)" style="text;html=1;align=center;verticalAlign=middle;whiteSpace=wrap;rounded=0;" vertex="1" parent="1">
          <mxGeometry x="480" y="10" width="130" height="30" as="geometry" />
        </mxCell>
        <mxCell id="71ffQLiC_f40-Ffij4la-45" value="IRELAND" style="text;html=1;align=center;verticalAlign=middle;whiteSpace=wrap;rounded=0;" vertex="1" parent="1">
          <mxGeometry x="137.5" y="100" width="60" height="30" as="geometry" />
        </mxCell>
        <mxCell id="71ffQLiC_f40-Ffij4la-46" value="&lt;h1 style=&quot;margin-top: 0px;&quot;&gt;AWS AUTO SCALING GROUP&lt;/h1&gt;&lt;p&gt;&lt;b&gt;WITH HA + SC&lt;/b&gt;&lt;/p&gt;" style="text;html=1;whiteSpace=wrap;overflow=hidden;rounded=0;" vertex="1" parent="1">
          <mxGeometry width="401.25" height="90" as="geometry" />
        </mxCell>
      </root>
    </mxGraphModel>
  </diagram>
</mxfile>
